# Blender v2.80 (sub 75) OBJ File: ''
# www.blender.org
mtllib furniture2.mtl
o Cube.005
v -0.225921 0.583206 -0.165812
v -0.225921 0.583206 0.181294
v -0.068588 0.583206 0.181294
v -0.068588 0.583206 -0.165812
v -0.225921 -0.046388 0.181294
v -0.068588 -0.046388 0.181294
v -0.068588 -0.046388 -0.165812
v -0.225921 -0.046388 -0.165812
vt 0.375000 0.000000
vt 0.375000 0.250000
vt 0.625000 0.250000
vt 0.625000 0.000000
vt 0.375000 0.250000
vt 0.375000 0.500000
vt 0.625000 0.500000
vt 0.625000 0.250000
vt 0.375000 0.750000
vt 0.625000 0.750000
vt 0.375000 1.000000
vt 0.625000 1.000000
vt 0.625000 0.750000
vt 0.125000 0.500000
vt 0.125000 0.750000
vt 0.375000 0.750000
vt 0.375000 0.500000
vt 0.625000 0.500000
vt 0.875000 0.750000
vt 0.875000 0.500000
vn 0.0000 1.0000 0.0000
vn 0.0000 -0.0000 1.0000
vn 1.0000 0.0000 0.0000
vn 0.0000 -1.0000 -0.0000
vn -1.0000 0.0000 0.0000
vn 0.0000 0.0000 -1.0000
usemtl Material.002
s 1
f 1/1/1 2/2/1 3/3/1 4/4/1
f 5/5/2 6/6/2 3/7/2 2/8/2
f 6/6/3 7/9/3 4/10/3 3/7/3
f 7/9/4 6/11/4 5/12/4 8/13/4
f 8/14/5 5/15/5 2/16/5 1/17/5
f 7/18/6 8/13/6 1/19/6 4/20/6
o Cube.006
v 0.214166 0.087173 -0.158028
v 0.214166 0.087173 0.175863
v 0.214166 -0.120883 0.175863
v 0.214166 -0.120883 -0.158028
v -0.223563 0.087173 0.175863
v -0.223563 -0.120883 0.175863
v -0.223563 -0.120883 -0.158028
v -0.223563 0.087173 -0.158028
vt 0.375000 0.000000
vt 0.375000 0.250000
vt 0.625000 0.250000
vt 0.625000 0.000000
vt 0.375000 0.250000
vt 0.375000 0.500000
vt 0.625000 0.500000
vt 0.625000 0.250000
vt 0.375000 0.750000
vt 0.625000 0.750000
vt 0.375000 1.000000
vt 0.625000 1.000000
vt 0.625000 0.750000
vt 0.125000 0.500000
vt 0.125000 0.750000
vt 0.375000 0.750000
vt 0.375000 0.500000
vt 0.625000 0.500000
vt 0.875000 0.750000
vt 0.875000 0.500000
vn 1.0000 0.0000 0.0000
vn 0.0000 -0.0000 1.0000
vn 0.0000 -1.0000 -0.0000
vn -1.0000 0.0000 0.0000
vn 0.0000 1.0000 0.0000
vn 0.0000 0.0000 -1.0000
usemtl Material.002
s 1
f 9/21/7 10/22/7 11/23/7 12/24/7
f 13/25/8 14/26/8 11/27/8 10/28/8
f 14/26/9 15/29/9 12/30/9 11/27/9
f 15/29/10 14/31/10 13/32/10 16/33/10
f 16/34/11 13/35/11 10/36/11 9/37/11
f 15/38/12 16/33/12 9/39/12 12/40/12
o Cube.007
v 0.214166 -0.122691 -0.307132
v 0.214166 0.382790 -0.307132
v 0.214166 0.382790 -0.159035
v 0.214166 -0.122691 -0.159035
v -0.223563 0.382790 -0.307132
v -0.223563 0.382790 -0.159035
v -0.223563 -0.122691 -0.159035
v -0.223563 -0.122691 -0.307132
vt 0.375000 0.000000
vt 0.375000 0.250000
vt 0.625000 0.250000
vt 0.625000 0.000000
vt 0.375000 0.250000
vt 0.375000 0.500000
vt 0.625000 0.500000
vt 0.625000 0.250000
vt 0.375000 0.750000
vt 0.625000 0.750000
vt 0.375000 1.000000
vt 0.625000 1.000000
vt 0.625000 0.750000
vt 0.125000 0.500000
vt 0.125000 0.750000
vt 0.375000 0.750000
vt 0.375000 0.500000
vt 0.625000 0.500000
vt 0.875000 0.750000
vt 0.875000 0.500000
vn 1.0000 0.0000 0.0000
vn 0.0000 1.0000 0.0000
vn 0.0000 -0.0000 1.0000
vn -1.0000 -0.0000 0.0000
vn 0.0000 0.0000 -1.0000
vn 0.0000 -1.0000 -0.0000
usemtl Material.001
s 1
f 17/41/13 18/42/13 19/43/13 20/44/13
f 21/45/14 22/46/14 19/47/14 18/48/14
f 22/46/15 23/49/15 20/50/15 19/47/15
f 23/49/16 22/51/16 21/52/16 24/53/16
f 24/54/17 21/55/17 18/56/17 17/57/17
f 23/58/18 24/53/18 17/59/18 20/60/18
o Cube.002_Cube.004
v 0.214166 -0.119108 0.176548
v 0.214166 0.366849 0.176548
v 0.214166 0.366849 0.324645
v 0.214166 -0.119108 0.324645
v -0.223563 0.366849 0.176548
v -0.223563 0.366849 0.324645
v -0.223563 -0.119108 0.324645
v -0.223563 -0.119108 0.176548
vt 0.375000 0.000000
vt 0.375000 0.250000
vt 0.625000 0.250000
vt 0.625000 0.000000
vt 0.375000 0.250000
vt 0.375000 0.500000
vt 0.625000 0.500000
vt 0.625000 0.250000
vt 0.375000 0.750000
vt 0.625000 0.750000
vt 0.375000 1.000000
vt 0.625000 1.000000
vt 0.625000 0.750000
vt 0.125000 0.500000
vt 0.125000 0.750000
vt 0.375000 0.750000
vt 0.375000 0.500000
vt 0.625000 0.500000
vt 0.875000 0.750000
vt 0.875000 0.500000
vn 1.0000 0.0000 0.0000
vn 0.0000 1.0000 0.0000
vn 0.0000 -0.0000 1.0000
vn -1.0000 0.0000 0.0000
vn 0.0000 0.0000 -1.0000
vn 0.0000 -1.0000 -0.0000
usemtl Material.001
s 1
f 25/61/19 26/62/19 27/63/19 28/64/19
f 29/65/20 30/66/20 27/67/20 26/68/20
f 30/66/21 31/69/21 28/70/21 27/67/21
f 31/69/22 30/71/22 29/72/22 32/73/22
f 32/74/23 29/75/23 26/76/23 25/77/23
f 31/78/24 32/73/24 25/79/24 28/80/24
