# Blender v2.80 (sub 75) OBJ File: ''
# www.blender.org
mtllib furniture1.mtl
o Cube
v -0.236720 -0.122865 0.256293
v -0.236720 0.355417 0.256293
v -0.236720 -0.122865 0.212328
v -0.236720 0.355417 0.212328
v -0.192755 -0.122865 0.256293
v -0.192755 0.355417 0.256293
v -0.192755 -0.122865 0.212328
v -0.192755 0.355417 0.212328
vt 0.375000 0.000000
vt 0.375000 0.250000
vt 0.625000 0.250000
vt 0.625000 0.000000
vt 0.375000 0.250000
vt 0.375000 0.500000
vt 0.625000 0.500000
vt 0.625000 0.250000
vt 0.375000 0.750000
vt 0.625000 0.750000
vt 0.375000 1.000000
vt 0.625000 1.000000
vt 0.625000 0.750000
vt 0.125000 0.500000
vt 0.125000 0.750000
vt 0.375000 0.750000
vt 0.375000 0.500000
vt 0.625000 0.500000
vt 0.875000 0.750000
vt 0.875000 0.500000
vn 0.0000 -1.0000 0.0000
vn 0.0000 0.0000 -1.0000
vn 1.0000 0.0000 0.0000
vn 0.0000 1.0000 0.0000
vn -1.0000 0.0000 0.0000
vn 0.0000 0.0000 1.0000
usemtl Material.004
s off
f 1/1/1 3/2/1 7/3/1 5/4/1
f 4/5/2 8/6/2 7/7/2 3/8/2
f 8/6/3 6/9/3 5/10/3 7/7/3
f 6/9/4 8/11/4 4/12/4 2/13/4
f 2/14/5 4/15/5 3/16/5 1/17/5
f 6/18/6 2/13/6 1/19/6 5/20/6
o Cube.001
v 0.199837 -0.122865 0.256293
v 0.199837 0.355417 0.256293
v 0.199837 -0.122865 0.212328
v 0.199837 0.355417 0.212328
v 0.243802 -0.122865 0.256293
v 0.243802 0.355417 0.256293
v 0.243802 -0.122865 0.212328
v 0.243802 0.355417 0.212328
vt 0.375000 0.000000
vt 0.375000 0.250000
vt 0.625000 0.250000
vt 0.625000 0.000000
vt 0.375000 0.250000
vt 0.375000 0.500000
vt 0.625000 0.500000
vt 0.625000 0.250000
vt 0.375000 0.750000
vt 0.625000 0.750000
vt 0.375000 1.000000
vt 0.625000 1.000000
vt 0.625000 0.750000
vt 0.125000 0.500000
vt 0.125000 0.750000
vt 0.375000 0.750000
vt 0.375000 0.500000
vt 0.625000 0.500000
vt 0.875000 0.750000
vt 0.875000 0.500000
vn 0.0000 -1.0000 0.0000
vn 0.0000 0.0000 -1.0000
vn 1.0000 0.0000 0.0000
vn 0.0000 1.0000 0.0000
vn -1.0000 0.0000 0.0000
vn 0.0000 0.0000 1.0000
usemtl Material.004
s off
f 9/21/7 11/22/7 15/23/7 13/24/7
f 12/25/8 16/26/8 15/27/8 11/28/8
f 16/26/9 14/29/9 13/30/9 15/27/9
f 14/29/10 16/31/10 12/32/10 10/33/10
f 10/34/11 12/35/11 11/36/11 9/37/11
f 14/38/12 10/33/12 9/39/12 13/40/12
o Cube.002
v 0.199837 -0.122865 -0.176892
v 0.199837 0.355417 -0.176892
v 0.199837 -0.122865 -0.220857
v 0.199837 0.355417 -0.220857
v 0.243802 -0.122865 -0.176892
v 0.243802 0.355417 -0.176892
v 0.243802 -0.122865 -0.220857
v 0.243802 0.355417 -0.220857
vt 0.375000 0.000000
vt 0.375000 0.250000
vt 0.625000 0.250000
vt 0.625000 0.000000
vt 0.375000 0.250000
vt 0.375000 0.500000
vt 0.625000 0.500000
vt 0.625000 0.250000
vt 0.375000 0.750000
vt 0.625000 0.750000
vt 0.375000 1.000000
vt 0.625000 1.000000
vt 0.625000 0.750000
vt 0.125000 0.500000
vt 0.125000 0.750000
vt 0.375000 0.750000
vt 0.375000 0.500000
vt 0.625000 0.500000
vt 0.875000 0.750000
vt 0.875000 0.500000
vn 0.0000 -1.0000 0.0000
vn 0.0000 0.0000 -1.0000
vn 1.0000 0.0000 0.0000
vn 0.0000 1.0000 0.0000
vn -1.0000 0.0000 0.0000
vn 0.0000 0.0000 1.0000
usemtl Material.004
s off
f 17/41/13 19/42/13 23/43/13 21/44/13
f 20/45/14 24/46/14 23/47/14 19/48/14
f 24/46/15 22/49/15 21/50/15 23/47/15
f 22/49/16 24/51/16 20/52/16 18/53/16
f 18/54/17 20/55/17 19/56/17 17/57/17
f 22/58/18 18/53/18 17/59/18 21/60/18
o Cube.003
v -0.232448 -0.122865 -0.176892
v -0.232448 0.355417 -0.176892
v -0.232448 -0.122865 -0.220857
v -0.232448 0.355417 -0.220857
v -0.188483 -0.122865 -0.176892
v -0.188483 0.355417 -0.176892
v -0.188483 -0.122865 -0.220857
v -0.188483 0.355417 -0.220857
vt 0.375000 0.000000
vt 0.375000 0.250000
vt 0.625000 0.250000
vt 0.625000 0.000000
vt 0.375000 0.250000
vt 0.375000 0.500000
vt 0.625000 0.500000
vt 0.625000 0.250000
vt 0.375000 0.750000
vt 0.625000 0.750000
vt 0.375000 1.000000
vt 0.625000 1.000000
vt 0.625000 0.750000
vt 0.125000 0.500000
vt 0.125000 0.750000
vt 0.375000 0.750000
vt 0.375000 0.500000
vt 0.625000 0.500000
vt 0.875000 0.750000
vt 0.875000 0.500000
vn 0.0000 -1.0000 0.0000
vn 0.0000 0.0000 -1.0000
vn 1.0000 0.0000 0.0000
vn 0.0000 1.0000 0.0000
vn -1.0000 0.0000 0.0000
vn 0.0000 0.0000 1.0000
usemtl Material.004
s off
f 25/61/19 27/62/19 31/63/19 29/64/19
f 28/65/20 32/66/20 31/67/20 27/68/20
f 32/66/21 30/69/21 29/70/21 31/67/21
f 30/69/22 32/71/22 28/72/22 26/73/22
f 26/74/23 28/75/23 27/76/23 25/77/23
f 30/78/24 26/73/24 25/79/24 29/80/24
o Cube.004
v -0.241320 0.344707 0.274659
v -0.241320 0.377617 0.274659
v -0.241320 0.344707 -0.239288
v -0.241320 0.377617 -0.239288
v 0.249045 0.344707 0.274659
v 0.249045 0.377617 0.274659
v 0.249045 0.344707 -0.239288
v 0.249045 0.377617 -0.239288
vt 0.375000 0.000000
vt 0.375000 0.250000
vt 0.625000 0.250000
vt 0.625000 0.000000
vt 0.375000 0.250000
vt 0.375000 0.500000
vt 0.625000 0.500000
vt 0.625000 0.250000
vt 0.375000 0.750000
vt 0.625000 0.750000
vt 0.375000 1.000000
vt 0.625000 1.000000
vt 0.625000 0.750000
vt 0.125000 0.500000
vt 0.125000 0.750000
vt 0.375000 0.750000
vt 0.375000 0.500000
vt 0.625000 0.500000
vt 0.875000 0.750000
vt 0.875000 0.500000
vn 0.0000 -1.0000 0.0000
vn 0.0000 0.0000 -1.0000
vn 1.0000 0.0000 0.0000
vn 0.0000 1.0000 0.0000
vn -1.0000 0.0000 0.0000
vn 0.0000 0.0000 1.0000
usemtl Material.004
s off
f 33/81/25 35/82/25 39/83/25 37/84/25
f 36/85/26 40/86/26 39/87/26 35/88/26
f 40/86/27 38/89/27 37/90/27 39/87/27
f 38/89/28 40/91/28 36/92/28 34/93/28
f 34/94/29 36/95/29 35/96/29 33/97/29
f 38/98/30 34/93/30 33/99/30 37/100/30
o Cube.006
v 0.199837 0.360992 -0.176892
v 0.199837 0.839274 -0.176892
v 0.199837 0.360992 -0.220857
v 0.199837 0.839274 -0.220857
v 0.243802 0.360992 -0.176892
v 0.243802 0.839274 -0.176892
v 0.243802 0.360992 -0.220857
v 0.243802 0.839274 -0.220857
vt 0.375000 0.000000
vt 0.375000 0.250000
vt 0.625000 0.250000
vt 0.625000 0.000000
vt 0.375000 0.250000
vt 0.375000 0.500000
vt 0.625000 0.500000
vt 0.625000 0.250000
vt 0.375000 0.750000
vt 0.625000 0.750000
vt 0.375000 1.000000
vt 0.625000 1.000000
vt 0.625000 0.750000
vt 0.125000 0.500000
vt 0.125000 0.750000
vt 0.375000 0.750000
vt 0.375000 0.500000
vt 0.625000 0.500000
vt 0.875000 0.750000
vt 0.875000 0.500000
vn 0.0000 -1.0000 0.0000
vn 0.0000 0.0000 -1.0000
vn 1.0000 0.0000 0.0000
vn 0.0000 1.0000 0.0000
vn -1.0000 0.0000 0.0000
vn 0.0000 0.0000 1.0000
usemtl Material.004
s off
f 41/101/31 43/102/31 47/103/31 45/104/31
f 44/105/32 48/106/32 47/107/32 43/108/32
f 48/106/33 46/109/33 45/110/33 47/107/33
f 46/109/34 48/111/34 44/112/34 42/113/34
f 42/114/35 44/115/35 43/116/35 41/117/35
f 46/118/36 42/113/36 41/119/36 45/120/36
o Cube.005
v -0.232448 0.360992 -0.176892
v -0.232448 0.839274 -0.176892
v -0.232448 0.360992 -0.220857
v -0.232448 0.839274 -0.220857
v -0.188483 0.360992 -0.176892
v -0.188483 0.839274 -0.176892
v -0.188483 0.360992 -0.220857
v -0.188483 0.839274 -0.220857
vt 0.375000 0.000000
vt 0.375000 0.250000
vt 0.625000 0.250000
vt 0.625000 0.000000
vt 0.375000 0.250000
vt 0.375000 0.500000
vt 0.625000 0.500000
vt 0.625000 0.250000
vt 0.375000 0.750000
vt 0.625000 0.750000
vt 0.375000 1.000000
vt 0.625000 1.000000
vt 0.625000 0.750000
vt 0.125000 0.500000
vt 0.125000 0.750000
vt 0.375000 0.750000
vt 0.375000 0.500000
vt 0.625000 0.500000
vt 0.875000 0.750000
vt 0.875000 0.500000
vn 0.0000 -1.0000 0.0000
vn 0.0000 0.0000 -1.0000
vn 1.0000 0.0000 0.0000
vn 0.0000 1.0000 0.0000
vn -1.0000 0.0000 0.0000
vn 0.0000 0.0000 1.0000
usemtl Material.004
s off
f 49/121/37 51/122/37 55/123/37 53/124/37
f 52/125/38 56/126/38 55/127/38 51/128/38
f 56/126/39 54/129/39 53/130/39 55/127/39
f 54/129/40 56/131/40 52/132/40 50/133/40
f 50/134/41 52/135/41 51/136/41 49/137/41
f 54/138/42 50/133/42 49/139/42 53/140/42
o Cube.007
v -0.233844 0.845683 -0.177559
v 0.247844 0.845683 -0.177559
v -0.233844 0.845683 -0.220191
v 0.247844 0.845683 -0.220191
v -0.233844 0.807669 -0.177559
v 0.247844 0.807669 -0.177559
v -0.233844 0.807669 -0.220191
v 0.247844 0.807669 -0.220191
vt 0.375000 0.000000
vt 0.375000 0.250000
vt 0.625000 0.250000
vt 0.625000 0.000000
vt 0.375000 0.250000
vt 0.375000 0.500000
vt 0.625000 0.500000
vt 0.625000 0.250000
vt 0.375000 0.750000
vt 0.625000 0.750000
vt 0.375000 1.000000
vt 0.625000 1.000000
vt 0.625000 0.750000
vt 0.125000 0.500000
vt 0.125000 0.750000
vt 0.375000 0.750000
vt 0.375000 0.500000
vt 0.625000 0.500000
vt 0.875000 0.750000
vt 0.875000 0.500000
vn -1.0000 0.0000 0.0000
vn 0.0000 0.0000 -1.0000
vn 0.0000 -1.0000 0.0000
vn 1.0000 0.0000 0.0000
vn -0.0000 1.0000 0.0000
vn 0.0000 0.0000 1.0000
usemtl Material.004
s off
f 57/141/43 59/142/43 63/143/43 61/144/43
f 60/145/44 64/146/44 63/147/44 59/148/44
f 64/146/45 62/149/45 61/150/45 63/147/45
f 62/149/46 64/151/46 60/152/46 58/153/46
f 58/154/47 60/155/47 59/156/47 57/157/47
f 62/158/48 58/153/48 57/159/48 61/160/48
o Cube.008
v 0.050009 0.360992 -0.176892
v 0.050009 0.839274 -0.176892
v 0.050009 0.360992 -0.220857
v 0.050009 0.839274 -0.220857
v 0.093974 0.360992 -0.176892
v 0.093974 0.839274 -0.176892
v 0.093974 0.360992 -0.220857
v 0.093974 0.839274 -0.220857
vt 0.375000 0.000000
vt 0.375000 0.250000
vt 0.625000 0.250000
vt 0.625000 0.000000
vt 0.375000 0.250000
vt 0.375000 0.500000
vt 0.625000 0.500000
vt 0.625000 0.250000
vt 0.375000 0.750000
vt 0.625000 0.750000
vt 0.375000 1.000000
vt 0.625000 1.000000
vt 0.625000 0.750000
vt 0.125000 0.500000
vt 0.125000 0.750000
vt 0.375000 0.750000
vt 0.375000 0.500000
vt 0.625000 0.500000
vt 0.875000 0.750000
vt 0.875000 0.500000
vn 0.0000 -1.0000 0.0000
vn 0.0000 0.0000 -1.0000
vn 1.0000 0.0000 0.0000
vn 0.0000 1.0000 0.0000
vn -1.0000 0.0000 0.0000
vn 0.0000 0.0000 1.0000
usemtl Material.004
s off
f 65/161/49 67/162/49 71/163/49 69/164/49
f 68/165/50 72/166/50 71/167/50 67/168/50
f 72/166/51 70/169/51 69/170/51 71/167/51
f 70/169/52 72/171/52 68/172/52 66/173/52
f 66/174/53 68/175/53 67/176/53 65/177/53
f 70/178/54 66/173/54 65/179/54 69/180/54
o Cube.009
v -0.093466 0.360992 -0.176892
v -0.093466 0.839274 -0.176892
v -0.093466 0.360992 -0.220857
v -0.093466 0.839274 -0.220857
v -0.049501 0.360992 -0.176892
v -0.049501 0.839274 -0.176892
v -0.049501 0.360992 -0.220857
v -0.049501 0.839274 -0.220857
vt 0.375000 0.000000
vt 0.375000 0.250000
vt 0.625000 0.250000
vt 0.625000 0.000000
vt 0.375000 0.250000
vt 0.375000 0.500000
vt 0.625000 0.500000
vt 0.625000 0.250000
vt 0.375000 0.750000
vt 0.625000 0.750000
vt 0.375000 1.000000
vt 0.625000 1.000000
vt 0.625000 0.750000
vt 0.125000 0.500000
vt 0.125000 0.750000
vt 0.375000 0.750000
vt 0.375000 0.500000
vt 0.625000 0.500000
vt 0.875000 0.750000
vt 0.875000 0.500000
vn 0.0000 -1.0000 0.0000
vn 0.0000 0.0000 -1.0000
vn 1.0000 0.0000 0.0000
vn 0.0000 1.0000 0.0000
vn -1.0000 0.0000 0.0000
vn 0.0000 0.0000 1.0000
usemtl Material.004
s off
f 73/181/55 75/182/55 79/183/55 77/184/55
f 76/185/56 80/186/56 79/187/56 75/188/56
f 80/186/57 78/189/57 77/190/57 79/187/57
f 78/189/58 80/191/58 76/192/58 74/193/58
f 74/194/59 76/195/59 75/196/59 73/197/59
f 78/198/60 74/193/60 73/199/60 77/200/60
